<?xml version="1.0" encoding="utf-8"?>
<!-- Generator: Adobe Illustrator 27.7.0, SVG Export Plug-In . SVG Version: 6.00 Build 0)  -->
<svg version="1.1" id="Layer_1" xmlns="http://www.w3.org/2000/svg" xmlns:xlink="http://www.w3.org/1999/xlink" x="0px" y="0px"
	 viewBox="0 0 216.73 79.78" style="enable-background:new 0 0 216.73 79.78;" xml:space="preserve">
<style type="text/css">
	.st0{fill:none;}
</style>
<g>
	<path d="M5.99,53.96c1.08-6.04,12.04-18.52,20.89-18.52c2.55,0,4.03,1.3,3.69,3.26c-0.6,3.47-4.74,7.12-8.32,9.15
		c-0.07,0.04-0.16,0.07-0.25,0.07c-0.27,0-0.49-0.22-0.49-0.49c0-0.18,0.09-0.34,0.26-0.44c4.21-2.38,7.37-5.8,7.84-8.45
		c0.22-1.32-0.8-2.11-2.73-2.11c-8.41,0-18.88,11.93-19.94,17.7c-0.33,1.89,0.78,3.3,2.59,3.3c6.97,0,15.67-4.04,19.39-6.37
		c0.07-0.05,0.18-0.08,0.26-0.08c0.27,0,0.49,0.22,0.49,0.49c0,0.16-0.1,0.33-0.23,0.42c-3.75,2.36-12.71,6.52-19.91,6.52
		C7.1,58.41,5.54,56.44,5.99,53.96"/>
	<path d="M47.78,51.46c0,0.16-0.08,0.32-0.22,0.41c-3.47,2.48-9.21,4.84-11.43,4.84c-1.54,0-2.37-0.7-2.37-1.97
		c0-1.04,0.58-2.15,1.19-3.14c0.14-0.23,0.04-0.33-0.18-0.16c-0.18,0.14-0.37,0.27-0.56,0.41c-2.62,1.89-6.54,4.75-8.32,4.75
		c-0.75,0-1.25-0.44-1.25-1.11c0-2.18,5.7-5.74,7.86-5.74c0.88,0,1.37,0.25,1.74,0.85c1.55-1.12,2.01-1.41,2.32-1.41
		c0.33,0,0.59,0.25,0.59,0.57c0,0.32-0.27,0.73-0.71,1.36c-0.73,1.04-1.7,2.47-1.7,3.62c0,0.7,0.4,0.99,1.38,0.99
		c1.92,0,7.39-2.05,10.87-4.66c0.08-0.07,0.18-0.1,0.29-0.1C47.55,50.97,47.78,51.2,47.78,51.46 M32.52,50.74
		c-2.04,0-6.88,3.37-6.88,4.64c0,0.16,0.1,0.23,0.26,0.23c1.32,0,4.11-1.94,7.55-4.44C33.24,50.82,33.08,50.74,32.52,50.74"/>
	<path d="M64.1,51.46c0,0.22-0.14,0.41-0.34,0.47c-1.88,0.63-4.1,1.27-6.25,1.9c-2.08,0.62-4.08,1.19-5.7,1.73
		c-0.04,0.03-0.07,0.04-0.08,0.07c-1.27,1.79-4,4.01-6.1,4.01c-0.75,0-1.21-0.36-1.21-0.93c0-1.03,2.68-2.55,6.69-3.95l0.08-0.05
		c0.18-0.26,0.36-0.55,0.3-0.64c-0.11-0.19-1.08,0.04-1.99,0.19c-0.71,0.12-1.49,0.25-2.11,0.25c-1.04,0-1.63-0.41-1.63-1.16
		c0-1.86,3.6-4.71,5.93-4.71c0.77,0,1.26,0.42,1.26,1.08c0,0.1-0.01,0.22-0.03,0.29c-0.19,0.74-0.78,1.53-1.4,1.9
		c-0.08,0.04-0.18,0.07-0.26,0.07c-0.27,0-0.49-0.22-0.49-0.49c0-0.18,0.1-0.34,0.25-0.42c0.47-0.27,0.95-0.93,0.95-1.29
		c0-0.11-0.12-0.15-0.27-0.15c-1.74,0-4.95,2.42-4.95,3.63c0,0.21,0.16,0.27,0.64,0.27c0.55,0,1.23-0.11,1.95-0.23
		c0.66-0.11,1.34-0.22,1.85-0.22c0.84,0,1.32,0.36,1.26,0.97c-0.01,0.08-0.03,0.19-0.05,0.29c1.44-0.45,3.12-0.96,4.84-1.44
		c2.15-0.63,4.34-1.26,6.21-1.89c0.04-0.01,0.1-0.03,0.16-0.03C63.88,50.97,64.1,51.19,64.1,51.46 M50,56.22
		c-1.75,0.73-3.47,1.6-4.21,2.12c-0.11,0.07-0.18,0.15-0.18,0.22c0,0.05,0.07,0.1,0.2,0.1C46.84,58.65,48.55,57.68,50,56.22"/>
	<path d="M82.23,51.46c0,0.16-0.08,0.32-0.22,0.41c-3.47,2.48-9.21,4.84-11.43,4.84c-1.53,0-2.37-0.7-2.37-1.97
		c0-1.04,0.58-2.15,1.19-3.14c0.14-0.23,0.04-0.33-0.18-0.16c-0.18,0.14-0.37,0.27-0.56,0.41c-2.62,1.89-6.54,4.75-8.32,4.75
		c-0.75,0-1.25-0.44-1.25-1.11c0-2.18,5.7-5.74,7.87-5.74c0.88,0,1.37,0.25,1.74,0.85c1.55-1.12,2.01-1.41,2.32-1.41
		c0.33,0,0.59,0.25,0.59,0.57c0,0.32-0.27,0.73-0.71,1.36c-0.73,1.04-1.7,2.47-1.7,3.62c0,0.7,0.4,0.99,1.38,0.99
		c1.92,0,7.39-2.05,10.87-4.66c0.08-0.07,0.18-0.1,0.29-0.1C82,50.97,82.23,51.2,82.23,51.46 M66.97,50.74
		c-2.04,0-6.88,3.37-6.88,4.64c0,0.16,0.1,0.23,0.26,0.23c1.32,0,4.11-1.94,7.55-4.44C67.69,50.82,67.53,50.74,66.97,50.74"/>
	<path d="M114.42,46.52c1.12,0.66,1.71,1.71,1.71,3.07c0,0.73-0.12,1.41-0.38,2.06h0.01c0.75,0.18,1.51,0.4,2.25,0.66
		c0.21,0.05,0.34,0.25,0.34,0.47c0,0.27-0.22,0.49-0.49,0.49c-0.07,0-0.12-0.01-0.16-0.03c-0.74-0.26-1.51-0.48-2.34-0.66
		l-0.01-0.01v0.01c-2.54,4.54-10.58,7.4-17.03,7.4c-1.52,0-2.75-0.18-3.66-0.55h-0.01c-0.44,0.67-0.81,1.31-1.16,1.94
		c-0.08,0.15-0.26,0.26-0.44,0.26c-0.27,0-0.49-0.22-0.49-0.49c0-0.08,0.03-0.16,0.07-0.25c0.34-0.63,0.74-1.27,1.16-1.93
		l-0.01-0.01c-0.64-0.49-0.99-1.12-0.99-1.88c0-1.49,2.01-3.07,5.44-4.29c0.04-0.03,0.07-0.04,0.08-0.07
		c5.26-6.54,11.78-12.96,14.74-14.76c0.08-0.04,0.18-0.07,0.26-0.07c0.27,0,0.49,0.22,0.49,0.49c0,0.18-0.1,0.34-0.25,0.42
		c-2.71,1.63-8.58,7.34-13.56,13.4c2.9-0.82,6.18-1.27,9.23-1.27c1.97,0,3.84,0.16,5.56,0.51c0.01,0,0.01,0,0.03,0.01v-0.01
		c0.22-0.6,0.34-1.22,0.34-1.85c0-1.23-0.63-2.07-1.9-2.53c-0.03-0.01-0.04-0.01-0.07,0c-2.51,1.01-5.03,1.62-6.76,1.62
		c-0.83,0-1.47-0.45-1.42-1.05c0.08-1.15,2.3-1.96,5.27-1.96c1.15,0,2.11,0.12,2.89,0.34c0.05,0.01,0.07,0.01,0.1,0
		c4.17-1.71,8.15-4.48,8.15-7.36c0-1.44-1.8-2.17-5.47-2.17c-8.41,0-17.69,5.64-20.88,9.52c-0.1,0.11-0.23,0.18-0.38,0.18
		c-0.27,0-0.49-0.22-0.49-0.49c0-0.12,0.04-0.22,0.11-0.32c3.3-4.01,12.96-9.88,21.65-9.88c4.32,0,6.45,1.03,6.45,3.15
		C122.39,41.76,118.51,44.67,114.42,46.52 M97.06,54.3c-2.12,0.95-3.3,1.93-3.3,2.77c0,0.43,0.18,0.77,0.56,1.06
		C95.13,56.89,96.04,55.61,97.06,54.3 M114.33,52.37c-1.6-0.3-3.32-0.45-5.12-0.45c-3.56,0-7.39,0.7-10.33,1.7
		c-0.04,0-0.06,0.01-0.08,0.04c-1.32,1.67-2.55,3.33-3.62,4.93c0.77,0.25,1.84,0.4,3.12,0.4C104.51,58.98,111.89,56.41,114.33,52.37
		 M95.18,58.59v-0.01V58.59z M106.41,47.68c1.27,0,3.06-0.36,5-0.99c-0.4-0.04-0.77-0.05-1.15-0.05c-1.99,0-4.26,0.59-4.29,1.05
		C105.98,47.68,106.28,47.68,106.41,47.68"/>
	<path d="M119.5,55.28c0-1.14,1.4-3.22,3.81-5.71c0.1-0.1,0.22-0.15,0.36-0.15c0.26,0,0.49,0.23,0.49,0.49
		c0,0.12-0.04,0.23-0.12,0.33l-0.01,0.01c-2.1,2.15-3.53,4.19-3.53,5.03c0,0.54,0.23,0.75,0.85,0.75c1.86,0,8.18-2.93,11.45-5
		c0.1-0.04,0.18-0.07,0.26-0.07c0.26,0,0.49,0.23,0.49,0.49c0,0.16-0.1,0.34-0.23,0.42c-3.32,2.1-9.89,5.14-11.97,5.14
		C120.19,57.02,119.5,56.38,119.5,55.28 M124.82,48.2c0-0.11,0.04-0.22,0.11-0.3l0.79-1.06c0.1-0.11,0.23-0.18,0.38-0.18
		c0.27,0,0.49,0.22,0.49,0.49c0,0.11-0.04,0.22-0.11,0.32c-0.12,0.14-0.37,0.48-0.57,0.74c-0.08,0.12-0.16,0.22-0.21,0.29
		c-0.1,0.12-0.25,0.19-0.4,0.19C125.04,48.69,124.82,48.48,124.82,48.2"/>
	<path d="M146.96,51.46c0,0.18-0.1,0.34-0.26,0.44c-3.26,1.86-8.06,1.59-11.73-0.64c0.34,2.58-1.71,5.93-3.7,5.93
		c-0.8,0-1.32-0.63-1.32-1.58c0-1.73,1.56-3.85,3.82-5.21c0.03-0.03,0.04-0.04,0.07-0.08c0.1-0.33,0.45-0.51,0.78-0.42
		c0.06,0.01,0.08,0.01,0.11,0c0.27-0.14,0.58-0.25,0.89-0.36c0.06-0.01,0.12-0.03,0.17-0.03c0.26,0,0.49,0.23,0.49,0.49
		c0,0.22-0.14,0.41-0.34,0.48c-0.05,0.01-0.11,0.03-0.16,0.06c-0.01,0-0.03,0.01-0.03,0.01c3.33,1.92,7.58,2.12,10.47,0.49
		c0.07-0.05,0.15-0.08,0.25-0.08C146.73,50.97,146.96,51.2,146.96,51.46 M134,51.42c-1.81,1.18-3.06,2.89-3.06,4.19
		c0,0.41,0.11,0.59,0.33,0.59C132.61,56.2,134.22,53.39,134,51.42"/>
	<path d="M157.52,51.46c0,0.16-0.08,0.32-0.22,0.41c-4.17,2.93-8.11,3.41-11.73,3.41c-0.36,0-0.81-0.03-1.27-0.07
		c-4.86,6.49-9.51,13.17-12.29,17.76c0.1,0.11,0.08,0.3-0.03,0.51c-0.56,1.07-1,1.58-1.38,1.58c-0.44,0-0.62-0.29-0.47-0.75
		c0.04-0.15,0.12-0.3,0.22-0.47c2.58-4.47,7.54-11.67,12.84-18.74c-1.36-0.21-3-0.56-4.6-1.14c-0.21-0.07-0.34-0.26-0.34-0.47
		c0-0.27,0.22-0.49,0.49-0.49c0.07,0,0.12,0.01,0.18,0.03c1.79,0.63,3.56,0.99,4.95,1.15c0.77-1.01,1.55-2.04,2.33-3.03
		c0-0.05,0.04-0.11,0.1-0.14L146.3,51c8.58-11.1,14.8-17.72,16.76-17.72c0.63,0,1.1,0.41,1.1,0.97c0,2.27-9.69,13.32-17.28,17.55
		L145,54.28c0.22,0,0.41,0.01,0.58,0.01c3.56,0,7.21-0.45,11.17-3.23c0.08-0.07,0.18-0.1,0.29-0.1
		C157.31,50.97,157.52,51.19,157.52,51.46 M163.16,34.39c0-0.08-0.03-0.11-0.1-0.11c-1.82,0-10.14,9.81-14.39,15.24
		C155.21,45.02,163.16,35.28,163.16,34.39"/>
	<path d="M154.32,55.28c0-1.14,1.4-3.22,3.81-5.71c0.1-0.1,0.22-0.15,0.36-0.15c0.26,0,0.49,0.23,0.49,0.49
		c0,0.12-0.04,0.23-0.12,0.33l-0.01,0.01c-2.1,2.15-3.53,4.19-3.53,5.03c0,0.54,0.23,0.75,0.85,0.75c1.86,0,8.18-2.93,11.45-5
		c0.1-0.04,0.18-0.07,0.26-0.07c0.26,0,0.49,0.23,0.49,0.49c0,0.16-0.1,0.34-0.23,0.42c-3.32,2.1-9.89,5.14-11.98,5.14
		C155.01,57.02,154.32,56.38,154.32,55.28 M159.64,48.2c0-0.11,0.04-0.22,0.11-0.3l0.79-1.06c0.1-0.11,0.23-0.18,0.38-0.18
		c0.27,0,0.49,0.22,0.49,0.49c0,0.11-0.04,0.22-0.11,0.32c-0.12,0.14-0.37,0.48-0.57,0.74c-0.08,0.12-0.16,0.22-0.21,0.29
		c-0.1,0.12-0.25,0.19-0.4,0.19C159.86,48.69,159.64,48.48,159.64,48.2"/>
	<path d="M167.79,52.2c-1.44,2.33-2.16,4.11-2.16,5.28c0,0.75,0.26,0.96,1.23,0.96c1.96,0,8.3-3.27,14.2-7.34
		c0.08-0.07,0.18-0.1,0.29-0.1c0.27,0,0.49,0.22,0.49,0.49c0,0.16-0.08,0.32-0.22,0.41c-5.27,3.65-12.3,7.52-14.76,7.52
		c-1.51,0-2.22-0.62-2.22-1.95c0-7.38,25.43-32.91,30.65-32.91c0.96,0,1.55,0.52,1.55,1.4C196.84,29.62,178.35,45.8,167.79,52.2
		 M169.15,50.17c10.99-7.17,26.7-21.4,26.7-24.21c0-0.3-0.12-0.41-0.56-0.41C191.66,25.55,176.2,40.13,169.15,50.17"/>
	<path d="M178.66,55.28c0-1.14,1.4-3.22,3.81-5.71c0.1-0.1,0.22-0.15,0.36-0.15c0.26,0,0.49,0.23,0.49,0.49
		c0,0.12-0.04,0.23-0.12,0.33l-0.01,0.01c-2.1,2.15-3.54,4.19-3.54,5.03c0,0.54,0.23,0.75,0.85,0.75c1.86,0,8.18-2.93,11.45-5
		c0.1-0.04,0.18-0.07,0.26-0.07c0.26,0,0.49,0.23,0.49,0.49c0,0.16-0.1,0.34-0.23,0.42c-3.32,2.1-9.89,5.14-11.97,5.14
		C179.34,57.02,178.66,56.38,178.66,55.28 M183.97,48.2c0-0.11,0.04-0.22,0.11-0.3l0.8-1.06c0.1-0.11,0.23-0.18,0.38-0.18
		c0.27,0,0.49,0.22,0.49,0.49c0,0.11-0.04,0.22-0.11,0.32c-0.12,0.14-0.37,0.48-0.58,0.74c-0.08,0.12-0.17,0.22-0.21,0.29
		c-0.1,0.12-0.25,0.19-0.4,0.19C184.19,48.69,183.97,48.48,183.97,48.2"/>
	<path d="M210.81,51.46c0,0.16-0.08,0.32-0.22,0.41c-3.47,2.48-9.21,4.84-11.43,4.84c-1.53,0-2.37-0.7-2.37-1.97
		c0-1.04,0.58-2.15,1.19-3.14c0.14-0.23,0.04-0.33-0.18-0.16c-0.18,0.14-0.37,0.27-0.56,0.41c-2.62,1.89-6.54,4.75-8.32,4.75
		c-0.75,0-1.25-0.44-1.25-1.11c0-2.18,5.7-5.74,7.86-5.74c0.88,0,1.37,0.25,1.74,0.85c1.55-1.12,2.01-1.41,2.32-1.41
		c0.33,0,0.59,0.25,0.59,0.57c0,0.32-0.27,0.73-0.71,1.36c-0.73,1.04-1.7,2.47-1.7,3.62c0,0.7,0.4,0.99,1.38,0.99
		c1.92,0,7.39-2.05,10.87-4.66c0.08-0.07,0.18-0.1,0.29-0.1C210.58,50.97,210.81,51.2,210.81,51.46 M195.55,50.74
		c-2.04,0-6.88,3.37-6.88,4.64c0,0.16,0.1,0.23,0.26,0.23c1.32,0,4.11-1.94,7.55-4.44C196.28,50.82,196.11,50.74,195.55,50.74"/>
	<path d="M113.79,10.61c0.14-0.03,0.46-0.32,0.58-0.54c0.01-0.01-0.01-0.05-0.02-0.06c-0.01-0.02-0.04-0.03-0.05-0.03
		c-0.23,0.11-0.41,0.27-0.54,0.5c-0.01,0.02-0.01,0.05,0,0.07C113.76,10.57,113.78,10.59,113.79,10.61 M99.08,22.55
		c-0.48-0.29-0.92-0.44-1.58-0.32C98.12,22.29,98.54,22.53,99.08,22.55 M98.15,25.54c0.11,0.79,0.42,1.34,0.72,1.89
		c0.01,0.02,0.03,0.04,0.06,0.05c0.02,0.01,0.04,0.01,0.06,0c0.02-0.01,0.05-0.04,0.04-0.05c-0.15-0.41-0.28-0.82-0.45-1.21
		C98.49,26.01,98.35,25.84,98.15,25.54 M98.27,15.42c0.04,0.04,0.1,0.05,0.12,0c0.02-0.05,0.01-0.09-0.02-0.13
		c-0.16-0.17-0.32-0.33-0.5-0.48c-0.32-0.27-0.68-0.46-1.06-0.62c-0.07-0.03-0.15-0.06-0.21,0.01c-0.01,0.01,0.04,0.09,0.08,0.12
		C97.16,14.75,97.72,15.07,98.27,15.42 M118.06,18.75c0.18,0.25,0.44,0.34,0.67,0.49c0.19,0.12,0.42,0.21,0.59,0.35
		c0.65,0.55,1.47,0.7,2.23,0.99c0.2,0.07,0.44,0.1,0.73,0.02c-0.09-0.08-0.14-0.14-0.2-0.17c-1.08-0.58-2.18-1.12-3.32-1.57
		C118.53,18.76,118.3,18.72,118.06,18.75 M119.01,17.97c0.45,0.09,0.84,0.05,1.21,0.11c0.62,0.12,1.26,0.19,1.87,0.4
		c0.91,0.32,1.87,0.51,2.77,0.88c0.04,0.02,0.09-0.01,0.14-0.02c-0.02-0.04-0.03-0.1-0.06-0.12c-0.68-0.52-1.44-0.85-2.29-1
		c-0.15-0.03-0.31-0.02-0.46-0.07c-0.86-0.3-1.76-0.29-2.65-0.36C119.39,17.79,119.24,17.84,119.01,17.97 M92.9,20.16
		c0.13-0.11,0.21-0.24,0.23-0.4c0.13-0.61,0.13-1.21-0.08-1.82c-0.28-0.83-0.76-1.57-1.15-2.35c-0.01-0.02-0.03-0.04-0.05-0.06
		c-0.01-0.01-0.04-0.02-0.05-0.01c-0.02,0.01-0.05,0.04-0.05,0.06c0.08,0.38,0.13,0.76,0.26,1.12
		C92.43,17.81,92.57,18.98,92.9,20.16 M117.83,18.32c0.86,0.17,1.56,0.47,2.25,0.81c0.78,0.38,1.56,0.77,2.34,1.17
		c0.42,0.21,0.84,0.38,1.32,0.4c0.83,0.03,1.62-0.19,2.38-0.5c0.02-0.01,0.03-0.04,0.03-0.06c-0.02-0.04-0.04-0.09-0.07-0.1
		c-0.37-0.11-0.74-0.2-1.1-0.33c-0.65-0.25-1.31-0.45-1.96-0.69c-0.46-0.17-0.96-0.15-1.4-0.39c-0.44-0.24-0.94-0.26-1.42-0.32
		C119.45,18.2,118.69,18.12,117.83,18.32 M94.7,9.83c-0.01,0.02-0.01,0.05-0.01,0.07c0.09,0.85,0.3,1.66,0.63,2.44
		c0.33,0.77,0.86,1.33,1.65,1.61c0.62,0.23,1.09,0.67,1.57,1.08c0.13,0.11,0.18,0.31,0.38,0.37c0.12-0.18,0.06-0.4,0.02-0.57
		c-0.12-0.52-0.25-1.05-0.56-1.5c-0.51-0.74-1.07-1.44-1.89-1.89c-0.27-0.15-0.49-0.36-0.69-0.6c-0.31-0.37-0.66-0.71-0.99-1.06
		c-0.02-0.02-0.04-0.02-0.06-0.02C94.73,9.78,94.71,9.81,94.7,9.83 M93.86,22.55c0.06,0.1,0.09,0.17,0.14,0.22
		c0.44,0.39,0.82,0.84,1.12,1.35c0.25,0.42,0.49,0.84,0.75,1.25c0.24,0.39,0.49,0.77,0.68,1.19c0.2,0.42,0.51,0.75,0.9,1.03
		c0.46,0.34,0.98,0.55,1.46,0.84c0.05,0.02,0.1,0.04,0.15,0.03c0.05-0.01,0.09-0.02,0.13-0.05c0-0.02,0-0.05-0.02-0.07
		c-0.43-0.61-0.88-1.2-1.09-1.93c-0.37-1.24-1.14-2.22-2.08-3.07C95.41,22.81,94.69,22.56,93.86,22.55L93.86,22.55z M103.74,19.58
		c0.42,0.23,0.78,0.48,1.06,0.8c0.47,0.55,1.02,1.02,1.53,1.52c0.81,0.8,1.77,1.31,2.86,1.57c0.35,0.08,0.71,0.08,1.07,0.12
		c0.04,0,0.09-0.03,0.14-0.05c-0.03-0.07-0.04-0.15-0.1-0.2c-0.07-0.07-0.17-0.11-0.26-0.17c-0.58-0.43-1.13-0.88-1.47-1.54
		c-0.09-0.18-0.26-0.31-0.4-0.46c-0.17-0.16-0.38-0.28-0.52-0.46c-0.35-0.48-0.83-0.75-1.39-0.9c-0.08-0.01-0.15-0.04-0.22-0.07
		c-0.5-0.25-1.04-0.28-1.58-0.32C104.22,19.42,103.97,19.47,103.74,19.58z M112.28,18.7c-0.08-0.01-0.17-0.02-0.26-0.03
		c-0.05,0-0.1,0.01-0.14,0.04c-0.02,0.02-0.03,0.09-0.01,0.12c0.14,0.24,0.27,0.5,0.44,0.72c0.19,0.25,0.35,0.51,0.49,0.78
		c0.37,0.76,0.75,1.51,1.11,2.28c0.51,1.09,1.35,1.79,2.5,2.1c0.07,0.02,0.15-0.01,0.22-0.02c-0.02-0.07-0.02-0.14-0.05-0.2
		c-0.35-0.66-0.63-1.35-0.93-2.03c-0.33-0.75-0.64-1.51-1.11-2.19C113.95,19.45,113.18,18.91,112.28,18.7 M90.44,16.6
		c-0.02,0.24-0.05,0.34-0.05,0.44c0.06,1.02,0.19,2.04,0.63,2.98c0.17,0.37,0.33,0.75,0.52,1.11c0.13,0.23,0.19,0.47,0.17,0.73
		c-0.01,0.15-0.03,0.31,0.07,0.44c0.02,0.03,0.11,0.04,0.12,0.03c0.12-0.17,0.23-0.33,0.34-0.51c0.25-0.43,0.43-0.88,0.39-1.38
		c-0.03-0.36-0.06-0.71-0.14-1.06c-0.34-1.57-0.84-3.11-1.23-4.67c-0.03-0.12-0.04-0.25-0.16-0.33c-0.07-0.05-0.04-0.05-0.21,0.33
		C90.58,15.37,90.66,16.09,90.44,16.6 M101.86,12.77c0.1-0.07,0.18-0.1,0.22-0.16c0.55-0.65,1.18-1.2,1.92-1.64
		c0.15-0.09,0.3-0.2,0.43-0.32c0.69-0.62,1.32-1.27,1.84-2.05c0.16-0.24,0.24-0.51,0.41-0.73c0.31-0.39,0.42-0.87,0.62-1.31
		c0.01-0.05,0-0.1-0.03-0.14c-0.03-0.03-0.08-0.04-0.13-0.05c-0.03,0-0.05,0.01-0.07,0.03c-0.73,0.57-1.63,0.84-2.39,1.38
		c-0.44,0.31-0.87,0.6-1.26,0.98c-0.8,0.77-1.13,1.75-1.42,2.76C101.88,11.91,101.85,12.32,101.86,12.77z M114.61,10.37
		c-0.3,0.26-0.55,0.45-0.77,0.67c-0.67,0.7-1.13,1.53-1.18,2.52c-0.02,0.53,0.01,1.07-0.05,1.61c-0.01,0.08,0,0.15,0.02,0.23
		c0.14,0.71,0.16,1.42,0.05,2.14c-0.01,0.05-0.01,0.1,0,0.15c0.01,0.05,0.04,0.09,0.08,0.11c0.05,0.02,0.1,0.01,0.14-0.02
		c0.96-0.77,1.75-1.65,1.95-2.93c0.02-0.15,0.08-0.29,0.12-0.44c0.1-0.37,0.15-0.75,0.08-1.14
		C114.91,12.33,114.77,11.4,114.61,10.37 M100.94,23.39c0.2,0.02,0.41,0.1,0.71,0c-0.68-0.4-1.4-0.67-2.18-0.82
		c-0.01,0-0.05,0.04-0.05,0.04c0.01,0.05,0.02,0.11,0.05,0.12c0.09,0.03,0.19,0.05,0.29,0.07c0.31,0.05,0.58,0.17,0.76,0.44
		c-0.27-0.08-0.54-0.12-0.81-0.23c-0.36-0.14-0.72-0.24-1.1-0.3c-1.09-0.2-2.19-0.25-3.31-0.33c0.11,0.15,0.23,0.23,0.37,0.29
		c0.16,0.07,0.32,0.15,0.48,0.24c0.58,0.34,1.09,0.77,1.51,1.29c0.11,0.15,0.26,0.24,0.45,0.27c1.14,0.21,2.29,0.26,3.45,0.16
		c0.46-0.04,0.92-0.07,1.38-0.1c0.05,0,0.11,0.01,0.15-0.01c0.05-0.02,0.08-0.05,0.1-0.1c0.01-0.03-0.04-0.11-0.07-0.11
		c-0.34-0.04-0.63-0.22-0.93-0.35c-0.35-0.15-0.69-0.33-1.06-0.43C101.05,23.51,101,23.44,100.94,23.39 M104.72,16.21
		c0.12-0.28,0.41-0.37,0.64-0.52c0.45-0.29,0.93-0.54,1.38-0.83c0.66-0.43,1.18-0.98,1.57-1.66c0.07-0.12,0.24-0.27,0.13-0.41
		c-0.15-0.2-0.32,0.02-0.47,0.08c-0.41,0.15-0.8,0.36-1.2,0.51c-0.87,0.32-1.65,0.81-2.45,1.27c-0.29,0.17-0.55,0.38-0.76,0.64
		c-0.49,0.62-0.99,1.24-1.32,1.97c-0.09,0.21-0.19,0.42-0.27,0.63c-0.02,0.04,0.01,0.1,0.02,0.18c0.13-0.1,0.25-0.18,0.37-0.27
		c0.44-0.36,0.86-0.73,1.31-1.07c0.32-0.24,0.66-0.48,1.08-0.53c-0.01,0.12-0.09,0.18-0.17,0.23c-0.49,0.33-1,0.63-1.43,1.04
		c-0.15,0.14-0.36,0.21-0.43,0.42c0.24,0.11,0.43-0.06,0.62-0.14c0.78-0.33,1.55-0.67,2.2-1.24c0.11-0.1,0.26-0.16,0.39-0.25
		c0.46-0.33,0.83-0.75,1.21-1.17c0.01-0.01,0-0.05-0.01-0.07c-0.01-0.02-0.03-0.02-0.05-0.02c-0.07,0.03-0.14,0.06-0.21,0.1
		c-0.49,0.28-0.99,0.55-1.43,0.9C105.22,16.14,105.01,16.31,104.72,16.21 M98.07,28.57c-0.19-0.02-0.33-0.11-0.46-0.25
		c-0.91-1.05-1.81-2.09-2.49-3.31c-0.41-0.74-0.96-1.39-1.54-2.01c-0.1-0.11-0.24-0.19-0.35-0.3c-0.18-0.17-0.36-0.15-0.57-0.07
		c-0.36,0.14-0.67,0.38-1.02,0.52c-0.4,0.17-0.8,0.36-1.17,0.57c-0.76,0.42-1.53,0.85-2.22,1.37c-0.18,0.14-0.39,0.25-0.62,0.3
		c-0.03,0.01-0.05,0.01-0.08,0c-0.03-0.02-0.04-0.04-0.04-0.07c-0.01-0.04,0-0.11,0.03-0.13c0.57-0.39,1.15-0.77,1.73-1.15
		c0.62-0.41,1.27-0.77,1.94-1.1c0.21-0.1,0.22-0.18,0.17-0.44c-0.05-0.28-0.14-0.55-0.26-0.8c-0.42-0.91-0.76-1.85-0.84-2.86
		c-0.03-0.36-0.13-0.71-0.16-1.06c-0.06-0.74-0.03-1.47,0.17-2.21c0.12-0.44,0.25-0.89,0.36-1.33c0.08-0.31,0.24-0.56,0.5-0.76
		c0.08-0.07,0.22-0.04,0.24,0.07c0.25,1.09,0.86,2.03,1.33,3.02c0.26,0.53,0.57,1.04,0.67,1.63c0.04,0.2,0.08,0.4,0.06,0.61
		c-0.06,0.59-0.11,1.17-0.34,1.73c-0.18,0.42-0.31,0.86-0.46,1.3c-0.02,0.05-0.01,0.1,0.01,0.14c0.06,0.09,0.13,0.03,0.19-0.01
		c0.65-0.42,1.25-0.9,1.84-1.4c0.41-0.35,0.81-0.71,1.22-1.06c0.66-0.54,1.23-1.17,1.79-1.81c0.32-0.37,0.64-0.73,0.99-1.07
		c0.15-0.15,0.16-0.33,0.02-0.48c-0.12-0.14-0.25-0.26-0.39-0.37c-0.4-0.28-0.8-0.56-1.21-0.82c-0.6-0.37-1.09-0.85-1.44-1.46
		c-0.2-0.36-0.51-0.65-0.64-1.05c-0.15-0.44-0.32-0.87-0.44-1.31c-0.23-0.87-0.34-1.76-0.43-2.65c-0.03-0.3,0.09-0.54,0.23-0.78
		c0.01-0.02,0.09,0,0.13,0.02c0.03,0.01,0.04,0.03,0.05,0.06c0.15,0.49,0.4,0.94,0.67,1.38c0.02,0.04,0,0.1-0.01,0.15L95.2,9.3
		c-0.06-0.04-0.13-0.07-0.17-0.13c-0.13-0.18-0.26-0.38-0.38-0.57c-0.04-0.06-0.08-0.07-0.1-0.01c-0.02,0.04-0.04,0.11-0.02,0.14
		c0.25,0.58,0.58,1.12,1.07,1.54c0.04,0.03,0.09,0.05,0.14,0.06l0.39,0.3c0.15,0,0.31-0.02,0.43,0.11c0.63,0.68,1.3,1.31,1.86,2.06
		c0.39,0.52,0.65,1.1,0.78,1.74c0.07,0.35,0.14,0.69,0.23,1.09c0.48-0.46,0.85-0.95,1.19-1.46c0.23-0.34,0.5-0.65,0.61-1.06
		c0.03-0.12,0.08-0.23,0.07-0.37c-0.06-0.6,0.01-1.18,0.2-1.74c0.03-0.07,0.04-0.15,0.05-0.23c0.09-0.8,0.5-1.44,0.99-2.05
		c0.52-0.65,1.14-1.18,1.86-1.6c0.56-0.32,1.1-0.66,1.7-0.91c0.66-0.28,1.24-0.73,1.85-1.1c0.11-0.07,0.21-0.16,0.32-0.22
		c0.14-0.07,0.28-0.13,0.42-0.17c0.07-0.02,0.08,0.32,0,0.51c-0.03,0.07-0.06,0.14-0.1,0.2c-0.87,1.43-1.67,2.89-2.65,4.24
		c-0.59,0.81-1.23,1.58-2.08,2.15c-0.47,0.31-0.92,0.65-1.38,0.98c-0.54,0.38-1.03,0.81-1.41,1.39c-0.72,1.1-1.54,2.12-2.45,3.06
		c-0.25,0.26-0.51,0.51-0.74,0.79c-1.03,1.23-2.26,2.24-3.49,3.25c-0.08,0.06-0.15,0.14-0.23,0.2c0.07,0.09,0.14,0.06,0.21,0.03
		c0.48-0.18,0.96-0.36,1.43-0.56c0.45-0.19,0.91-0.36,1.38-0.5c0.64-0.19,1.26-0.42,1.9-0.63c0.64-0.2,1.27-0.41,1.94-0.51
		c0.15-0.02,0.31-0.09,0.22-0.31c0.14-0.41,0.3-0.81,0.43-1.23c0.35-1.13,0.95-2.11,1.74-2.95c0.61-0.64,1.31-1.15,2.12-1.52
		c0.28-0.13,0.56-0.25,0.85-0.37c0.17-0.07,0.32-0.17,0.5-0.21c0.82-0.2,1.62-0.48,2.41-0.79c0.13-0.05,0.25,0.07,0.23,0.2
		c-0.03,0.24-0.13,0.44-0.3,0.61c-0.61,0.64-1.07,1.37-1.55,2.1c-0.3,0.46-0.73,0.8-1.12,1.17c-0.92,0.88-2.03,1.48-3.2,1.95
		c-0.33,0.13-0.65,0.3-0.98,0.44c-0.2,0.08-0.35,0.21-0.49,0.36s-0.2,0.28-0.13,0.31c0.11,0.05,0.19-0.02,0.29-0.03
		c1.06-0.18,2.12-0.37,3.18-0.55c0.76-0.12,1.52-0.22,2.3-0.21c0.28,0,0.56-0.04,0.84-0.06c0.72-0.05,1.43-0.12,2.15-0.06
		c0.1,0.01,0.21,0.02,0.31-0.01c0.31-0.1,0.61-0.05,0.92-0.02c0.24,0.03,0.24,0.02,0.34-0.28c0.03-0.07,0.06-0.14,0.1-0.21
		c0.15-0.33,0.2-0.66,0.19-1.04c-0.01-0.59-0.02-1.18-0.12-1.76c-0.02-0.15-0.01-0.31,0-0.46c0.04-0.51,0.1-1.02,0.13-1.54
		c0.04-0.55,0.21-1.05,0.52-1.51c0.24-0.36,0.46-0.74,0.68-1.12c0.3-0.5,0.83-0.66,1.32-0.89c0.09-0.04,0.19,0.06,0.25,0.14
		c0.08,0.11,0.08,0.24,0.07,0.37c-0.09,1.21,0.04,2.41,0.27,3.59c0.13,0.68,0.08,1.32-0.19,1.96c-0.16,0.38-0.28,0.77-0.5,1.12
		c-0.34,0.53-0.76,0.96-1.28,1.31c-0.1,0.07-0.2,0.15-0.29,0.24c-0.03,0.03-0.04,0.09-0.05,0.13c0,0.01,0.04,0.03,0.06,0.04
		c0.05,0.01,0.1,0.02,0.15,0.02c1,0.02,2,0.02,3,0.05c0.24,0.01,0.46-0.06,0.67-0.15c0.26-0.11,0.52-0.22,0.78-0.34
		c0.72-0.35,1.48-0.42,2.25-0.35c0.67,0.06,1.33,0.11,1.98,0.32c0.12,0.03,0.25,0.05,0.38,0.06c1.05,0.1,1.98,0.52,2.83,1.12
		c0.53,0.37,1.05,0.73,1.66,0.95c0.12,0.05,0.23,0.11,0.34,0.19c0.06,0.04,0.13,0.1,0.14,0.16c0.02,0.08-0.06,0.13-0.13,0.15
		c-0.37,0.1-0.74,0.22-1.11,0.3c-0.38,0.08-0.76,0.11-1.14,0.17c-0.56,0.08-1.12,0.12-1.69,0.05c-0.48-0.07-0.97-0.09-1.46-0.16
		c-0.87-0.13-1.69-0.39-2.44-0.88c-0.57-0.39-1.16-0.76-1.81-1.02c-0.22-0.09-0.43-0.18-0.66-0.19c-0.74-0.05-1.47-0.16-2.21-0.09
		c-0.23,0.02-0.46-0.01-0.69-0.02c-0.13,0-0.26,0-0.38,0.01c-0.05,0.01-0.09,0.04-0.11,0.09c-0.01,0.05,0,0.08,0.04,0.12
		c0.59,0.36,0.96,0.92,1.39,1.43c0.17,0.2,0.28,0.43,0.38,0.67c0.47,1.06,0.93,2.11,1.4,3.17c0.19,0.42,0.43,0.82,0.73,1.18
		c0.09,0.11,0.02,0.25-0.14,0.26c-0.12,0.01-0.26,0.04-0.38,0c-0.63-0.21-1.27-0.41-1.76-0.9c-0.14-0.14-0.32-0.26-0.5-0.36
		c-0.61-0.37-1.07-0.87-1.41-1.49c-0.41-0.74-0.75-1.52-1.09-2.29c-0.14-0.33-0.28-0.66-0.41-1c-0.14-0.35-0.53-0.47-0.69-0.81
		c-0.04-0.1-0.15-0.13-0.26-0.13c-0.41-0.01-0.81-0.07-1.23-0.01c-0.53,0.07-1.08,0.03-1.62,0.06c-0.94,0.05-1.89,0.1-2.82,0.29
		c-0.02,0-0.04,0.03-0.06,0.05c-0.03,0.04-0.01,0.07,0.05,0.1c0.02,0.01,0.05,0.01,0.08,0.02c0.74,0.21,1.46,0.48,2.15,0.82
		c0.47,0.23,0.86,0.56,1.27,0.86c0.1,0.08,0.19,0.18,0.25,0.29c0.52,0.87,1.16,1.63,1.9,2.32c0.09,0.09,0.16,0.19,0.23,0.3
		c0.02,0.03-0.01,0.11-0.05,0.13c-0.17,0.11-0.37,0.19-0.58,0.18c-0.54-0.04-1.08-0.04-1.61-0.17c-0.51-0.12-0.94-0.41-1.38-0.67
		c-0.33-0.2-0.65-0.42-0.94-0.68c-0.65-0.58-1.32-1.14-1.93-1.77c-0.62-0.64-1.37-1.08-2.29-1.14c-0.23-0.01-0.46,0.01-0.68,0.05
		c-0.88,0.18-1.75,0.38-2.62,0.62c-0.25,0.06-0.49,0.15-0.72,0.26c-0.23,0.12-0.47,0.2-0.72,0.26c-0.48,0.11-0.93,0.29-1.38,0.48
		c-0.45,0.19-0.9,0.36-1.35,0.56c-0.19,0.08-0.42,0.09-0.53,0.31c0.21,0.1,0.4-0.03,0.6-0.07c0.69-0.11,1.37-0.19,2.07-0.1
		c0.43,0.05,0.87,0.08,1.3,0.15c0.63,0.11,1.26,0.24,1.89,0.38c0.15,0.03,0.29,0.11,0.42,0.18c0.86,0.45,1.72,0.9,2.58,1.36
		c0.36,0.19,0.72,0.39,1.08,0.6c0.07,0.04,0.11,0.1,0.12,0.18c0.02,0.1-0.09,0.11-0.15,0.11c-0.65-0.03-1.27,0.11-1.9,0.23
		c-0.65,0.13-1.32,0.22-1.99,0.13c-0.15-0.02-0.31-0.03-0.45-0.08c-0.37-0.14-0.75-0.17-1.13-0.21c-0.16-0.02-0.38-0.15-0.48,0.05
		c-0.07,0.15,0.11,0.27,0.18,0.4c0.07,0.13,0.13,0.28,0.22,0.4c0.26,0.36,0.43,0.76,0.58,1.17c0.17,0.48,0.32,0.98,0.64,1.39
		c0.18,0.23,0.1,0.49,0.17,0.73c0.04,0.14-0.08,0.16-0.16,0.21c-0.02,0.01-0.05,0.02-0.07,0.02c-0.59-0.04-1.17-0.13-1.6-0.61
		c0.17,0.05,0.34,0.09,0.5,0.16c0.27,0.12,0.54,0.18,0.96,0.09c-0.49-0.17-0.88-0.28-1.23-0.48c-0.09-0.05-0.19-0.06-0.29-0.05
		C98.07,28.4,98.05,28.49,98.07,28.57"/>
	<path d="M96.12,10.64l-0.39-0.3c-0.01-0.25-0.21-0.39-0.34-0.57c-0.1-0.14-0.24-0.27-0.19-0.47l0.01-0.01
		c0.37,0.3,0.62,0.69,0.89,1.06C96.17,10.45,96.15,10.54,96.12,10.64"/>
</g>
<rect x="-113.72" y="-213.26" class="st0" width="792" height="612"/>
</svg>
